<?xml version="1.0" encoding="UTF-8" standalone="no"?>
<!-- Created with Inkscape (http://www.inkscape.org/) -->

<svg
   width="83.564003mm"
   height="83.56424mm"
   viewBox="0 0 83.564003 83.56424"
   version="1.1"
   id="svg1"
   inkscape:version="1.3 (0e150ed6c4, 2023-07-21)"
   sodipodi:docname="favicon.svg"
   xmlns:inkscape="http://www.inkscape.org/namespaces/inkscape"
   xmlns:sodipodi="http://sodipodi.sourceforge.net/DTD/sodipodi-0.dtd"
   xmlns="http://www.w3.org/2000/svg"
   xmlns:svg="http://www.w3.org/2000/svg">
  <sodipodi:namedview
     id="namedview1"
     pagecolor="#505050"
     bordercolor="#eeeeee"
     borderopacity="1"
     inkscape:showpageshadow="0"
     inkscape:pageopacity="0"
     inkscape:pagecheckerboard="0"
     inkscape:deskcolor="#505050"
     inkscape:document-units="mm"
     inkscape:zoom="1.4574355"
     inkscape:cx="18.86876"
     inkscape:cy="152.32235"
     inkscape:window-width="1920"
     inkscape:window-height="1022"
     inkscape:window-x="1920"
     inkscape:window-y="0"
     inkscape:window-maximized="1"
     inkscape:current-layer="layer1" />
  <defs
     id="defs1" />
  <g
     inkscape:label="Layer 1"
     inkscape:groupmode="layer"
     id="layer1"
     transform="translate(-27.485213,-85.805041)">
    <path
       style="fill:#2ea0dd;fill-opacity:1;stroke-width:4.99999;stroke-linecap:round;stroke-linejoin:round"
       d="m 40.769306,93.311735 27.857889,-4.121369 10.603243,24.800784 -9.524961,27.13708 -29.113929,3.95374 0.06691,-44.04898 10.870333,-3.72617 0.03893,30.49924 6.641092,-2.63504 1.138692,-25.823098 -18.805465,8.514178 z"
       id="path1"
       sodipodi:nodetypes="cccccccccccc" />
    <path
       style="fill:#ffffff;fill-opacity:1;stroke-width:4.99999;stroke-linecap:round;stroke-linejoin:round"
       d="m 47.614891,159.12708 3.059986,-6.92066 10.340117,-0.60388 3.573541,-9.78871 3.365745,-0.4607 25.044185,7.63703 -3.939429,8.51424 z"
       id="path5"
       sodipodi:nodetypes="cccccccc" />
    <path
       style="fill:#d2d2d2;fill-opacity:1;stroke-width:4.99999;stroke-linecap:round;stroke-linejoin:round"
       d="m 77.97242,111.68052 22.46447,-1.79717 7.00891,13.65841 -20.48759,2.87544 -5.21177,12.58011 24.98052,-3.95375 -10.064116,30.37196 -41.694034,3.95376 -7.368365,-10.24381 40.975187,-5.57118 0.898581,-3.23489 -25.519616,2.87546 z"
       id="path2"
       sodipodi:nodetypes="ccccccccccccc" />
    <path
       style="fill:#ffffff;fill-opacity:1;stroke-width:4.99999;stroke-linecap:round;stroke-linejoin:round"
       d="m 77.96692,111.73354 -2.446255,-6.44922 20.834106,0.01 4.043609,4.62768 z"
       id="path3" />
    <path
       style="fill:#ffffff;fill-opacity:1;stroke-width:4.99999;stroke-linecap:round;stroke-linejoin:round"
       d="m 84.184643,133.11001 19.204727,0.1043 3.36967,1.88702 -25.025432,3.90881 z"
       id="path4"
       sodipodi:nodetypes="ccccc" />
    <path
       style="fill:#969696;fill-opacity:1;stroke-width:4.99999;stroke-linecap:round;stroke-linejoin:round"
       d="m 61.037413,151.6063 1.286896,2.84015 4.807392,0.58407 21.791181,-2.63648 0.540083,-2.04914 -25.510955,2.85699 z"
       id="path6" />
    <path
       style="fill:#17628a;fill-opacity:1;stroke-width:4.99999;stroke-linecap:round;stroke-linejoin:round"
       d="m 40.553025,145.0563 -10.421977,-6.19609 6.408372,-47.590804 22.365771,-5.464365 9.721482,3.494653 -27.830131,4.002964 z"
       id="path7" />
    <path
       style="fill:#17628a;fill-opacity:1;stroke-width:4.99999;stroke-linecap:round;stroke-linejoin:round"
       d="m 51.335978,133.52882 0.08985,-5.66105 6.739342,-2.7856 1.078299,-25.802046 6.200185,-0.269573 3.684182,13.478689 -7.278499,20.42341 z"
       id="path8" />
  </g>
</svg>
